<svg width="165" height="42" viewBox="0 0 165 42" fill="none" xmlns="http://www.w3.org/2000/svg">
<path d="M67.3595 6.56321C67.2876 5.89061 66.9847 5.3669 66.4507 4.99209C65.9218 4.61728 65.2338 4.42988 64.3867 4.42988C63.7911 4.42988 63.2802 4.51973 62.8541 4.69943C62.4279 4.87914 62.1019 5.12302 61.876 5.43108C61.6501 5.73914 61.5345 6.09085 61.5294 6.48619C61.5294 6.81479 61.6038 7.09975 61.7527 7.34106C61.9068 7.58238 62.1147 7.78775 62.3766 7.95719C62.6384 8.12149 62.9285 8.26011 63.2468 8.37307C63.5652 8.48603 63.8861 8.58101 64.2095 8.65803L65.6882 9.0277C66.2838 9.16633 66.8563 9.35373 67.4057 9.58991C67.9602 9.8261 68.4556 10.1239 68.8921 10.4833C69.3336 10.8427 69.6828 11.2766 69.9395 11.7849C70.1962 12.2932 70.3246 12.8887 70.3246 13.5716C70.3246 14.4958 70.0884 15.3096 69.616 16.013C69.1437 16.7113 68.4608 17.2581 67.5674 17.6534C66.6792 18.0436 65.6035 18.2387 64.3405 18.2387C63.1133 18.2387 62.048 18.0488 61.1443 17.6688C60.2458 17.2889 59.5424 16.7344 59.0341 16.0053C58.5309 15.2762 58.2588 14.388 58.2177 13.3406H61.0288C61.0699 13.8899 61.2393 14.3469 61.5371 14.7114C61.8349 15.076 62.2225 15.3481 62.7 15.5278C63.1827 15.7075 63.7218 15.7974 64.3174 15.7974C64.9386 15.7974 65.4829 15.7049 65.9501 15.5201C66.4224 15.3301 66.7921 15.0683 67.0591 14.7345C67.3261 14.3957 67.4622 14.0003 67.4673 13.5485C67.4622 13.1378 67.3415 12.7989 67.1053 12.5319C66.8691 12.2598 66.538 12.0339 66.1118 11.8542C65.6908 11.6693 65.1979 11.505 64.6331 11.3613L62.8387 10.8992C61.5397 10.5654 60.5128 10.0597 59.758 9.38197C59.0084 8.6991 58.6336 7.79289 58.6336 6.66333C58.6336 5.73401 58.8852 4.92021 59.3884 4.22194C59.8967 3.52367 60.5872 2.98199 61.4601 2.59691C62.3329 2.2067 63.3213 2.0116 64.4252 2.0116C65.5445 2.0116 66.5251 2.2067 67.3672 2.59691C68.2143 2.98199 68.8792 3.51853 69.3619 4.20654C69.8445 4.88941 70.0935 5.67496 70.1089 6.56321H67.3595ZM75.7291 2.22724V18H72.8718V2.22724H75.7291ZM91.7849 2.22724V18H89.2434L81.8114 7.25635H81.6805V18H78.8232V2.22724H81.3801L88.8044 12.9786H88.943V2.22724H91.7849ZM94.2051 4.62242V2.22724H106.789V4.62242H101.914V18H99.0802V4.62242H94.2051ZM109.215 18V2.22724H119.474V4.62242H112.073V8.90448H118.942V11.2997H112.073V15.6048H119.535V18H109.215ZM122.389 18V2.22724H128.304C129.515 2.22724 130.532 2.43775 131.354 2.85877C132.18 3.27978 132.804 3.87023 133.225 4.63012C133.651 5.38487 133.864 6.26542 133.864 7.27175C133.864 8.28322 133.649 9.1612 133.217 9.90568C132.791 10.645 132.162 11.2175 131.33 11.6231C130.499 12.0236 129.477 12.2238 128.265 12.2238H124.052V9.85177H127.88C128.589 9.85177 129.169 9.75421 129.621 9.55911C130.072 9.35887 130.406 9.06878 130.622 8.68883C130.843 8.30376 130.953 7.8314 130.953 7.27175C130.953 6.7121 130.843 6.23461 130.622 5.83926C130.401 5.43878 130.065 5.13586 129.613 4.93048C129.161 4.71997 128.578 4.61472 127.865 4.61472H125.246V18H122.389ZM130.537 10.853L134.442 18H131.253L127.418 10.853H130.537ZM136.494 18V2.22724H146.753V4.62242H139.352V8.90448H146.221V11.2997H139.352V15.6048H146.814V18H136.494ZM155.013 18H149.668V2.22724H155.12C156.686 2.22724 158.032 2.543 159.156 3.17453C160.286 3.80092 161.153 4.702 161.759 5.87777C162.365 7.05354 162.668 8.46036 162.668 10.0982C162.668 11.7412 162.362 13.1532 161.752 14.3341C161.146 15.515 160.27 16.4212 159.125 17.0527C157.985 17.6842 156.615 18 155.013 18ZM152.525 15.5278H154.874C155.973 15.5278 156.889 15.3276 157.623 14.9271C158.358 14.5215 158.91 13.9182 159.279 13.1172C159.649 12.3111 159.834 11.3048 159.834 10.0982C159.834 8.89164 159.649 7.89044 159.279 7.09461C158.91 6.29365 158.363 5.6955 157.639 5.30016C156.92 4.89968 156.027 4.69943 154.959 4.69943H152.525V15.5278ZM67.3595 27.5632C67.2876 26.8906 66.9847 26.3669 66.4507 25.9921C65.9218 25.6173 65.2338 25.4299 64.3867 25.4299C63.7911 25.4299 63.2802 25.5197 62.8541 25.6994C62.4279 25.8791 62.1019 26.123 61.876 26.4311C61.6501 26.7391 61.5345 27.0908 61.5294 27.4862C61.5294 27.8148 61.6038 28.0997 61.7527 28.3411C61.9068 28.5824 62.1147 28.7878 62.3766 28.9572C62.6384 29.1215 62.9285 29.2601 63.2468 29.3731C63.5652 29.486 63.8861 29.581 64.2095 29.658L65.6882 30.0277C66.2838 30.1663 66.8563 30.3537 67.4057 30.5899C67.9602 30.8261 68.4556 31.1239 68.8921 31.4833C69.3336 31.8427 69.6828 32.2766 69.9395 32.7849C70.1962 33.2932 70.3246 33.8887 70.3246 34.5716C70.3246 35.4958 70.0884 36.3096 69.616 37.013C69.1437 37.7113 68.4608 38.2581 67.5674 38.6534C66.6792 39.0436 65.6035 39.2387 64.3405 39.2387C63.1133 39.2387 62.048 39.0488 61.1443 38.6688C60.2458 38.2889 59.5424 37.7344 59.0341 37.0053C58.5309 36.2762 58.2588 35.388 58.2177 34.3406H61.0288C61.0699 34.8899 61.2393 35.3469 61.5371 35.7114C61.8349 36.076 62.2225 36.3481 62.7 36.5278C63.1827 36.7075 63.7218 36.7974 64.3174 36.7974C64.9386 36.7974 65.4829 36.7049 65.9501 36.5201C66.4224 36.3301 66.7921 36.0683 67.0591 35.7345C67.3261 35.3957 67.4622 35.0003 67.4673 34.5485C67.4622 34.1378 67.3415 33.7989 67.1053 33.5319C66.8691 33.2598 66.538 33.0339 66.1118 32.8542C65.6908 32.6693 65.1979 32.505 64.6331 32.3613L62.8387 31.8992C61.5397 31.5654 60.5128 31.0597 59.758 30.382C59.0084 29.6991 58.6336 28.7929 58.6336 27.6633C58.6336 26.734 58.8852 25.9202 59.3884 25.2219C59.8967 24.5237 60.5872 23.982 61.4601 23.5969C62.3329 23.2067 63.3213 23.0116 64.4252 23.0116C65.5445 23.0116 66.5251 23.2067 67.3672 23.5969C68.2143 23.982 68.8792 24.5185 69.3619 25.2065C69.8445 25.8894 70.0935 26.675 70.1089 27.5632H67.3595ZM72.1787 25.6224V23.2272H84.763V25.6224H79.8879V39H77.0538V25.6224H72.1787ZM100.584 31.1136C100.584 32.8131 100.266 34.2687 99.6289 35.4804C98.9974 36.687 98.1348 37.6112 97.0412 38.253C95.9527 38.8947 94.7179 39.2156 93.3368 39.2156C91.9556 39.2156 90.7182 38.8947 89.6246 38.253C88.5361 37.606 87.6736 36.6793 87.0369 35.4727C86.4054 34.261 86.0896 32.808 86.0896 31.1136C86.0896 29.4141 86.4054 27.9611 87.0369 26.7545C87.6736 25.5428 88.5361 24.6161 89.6246 23.9743C90.7182 23.3325 91.9556 23.0116 93.3368 23.0116C94.7179 23.0116 95.9527 23.3325 97.0412 23.9743C98.1348 24.6161 98.9974 25.5428 99.6289 26.7545C100.266 27.9611 100.584 29.4141 100.584 31.1136ZM97.7112 31.1136C97.7112 29.9173 97.5238 28.9084 97.149 28.0869C96.7794 27.2603 96.2659 26.6365 95.6087 26.2154C94.9515 25.7893 94.1942 25.5762 93.3368 25.5762C92.4793 25.5762 91.722 25.7893 91.0648 26.2154C90.4076 26.6365 89.8916 27.2603 89.5168 28.0869C89.1471 28.9084 88.9623 29.9173 88.9623 31.1136C88.9623 32.3099 89.1471 33.3214 89.5168 34.148C89.8916 34.9695 90.4076 35.5934 91.0648 36.0195C91.722 36.4405 92.4793 36.651 93.3368 36.651C94.1942 36.651 94.9515 36.4405 95.6087 36.0195C96.2659 35.5934 96.7794 34.9695 97.149 34.148C97.5238 33.3214 97.7112 32.3099 97.7112 31.1136ZM116.247 23.2272V39H113.705L106.273 28.2563H106.143V39H103.285V23.2272H105.842L113.266 33.9786H113.405V23.2272H116.247ZM119.36 39V23.2272H129.619V25.6224H122.218V29.9045H129.087V32.2997H122.218V36.6048H129.68V39H119.36Z" fill="white"/>
<path d="M0 18.6627C0 9.46854 7.45331 2.01523 16.6474 2.01523H32.0463L20.3931 12.4199L8.32371 17.8303L25.5954 25.9459L6.65897 35.102L29.7573 33.0211L36.6243 25.9459L23.9307 17.8303L36.6243 7.42564L20.3931 12.4199L32.0463 2.01523H48.6937V40.3043H0V18.6627Z" fill="#DBFF00"/>
</svg>
